<?xml version="1.0" standalone="no"?>
<!DOCTYPE svg PUBLIC "-//W3C//DTD SVG 20010904//EN"
 "http://www.w3.org/TR/2001/REC-SVG-20010904/DTD/svg10.dtd">
<svg version="1.0" xmlns="http://www.w3.org/2000/svg"
 width="512.000000pt" height="512.000000pt" viewBox="0 0 512.000000 512.000000"
 preserveAspectRatio="xMidYMid meet">

<g transform="translate(0.000000,512.000000) scale(0.100000,-0.100000)"
fill="#000000" stroke="none">
<path d="M1197 5106 c-50 -19 -103 -60 -132 -105 -33 -49 -45 -120 -45 -267
l0 -124 -57 0 c-262 -1 -453 -192 -453 -453 l0 -55 -158 -4 c-169 -5 -200 -13
-260 -63 -18 -15 -45 -48 -60 -74 -23 -39 -27 -57 -27 -122 0 -67 4 -81 30
-124 40 -64 101 -110 165 -124 28 -6 109 -11 180 -11 l130 0 0 -170 0 -170
-158 0 c-150 0 -161 -1 -210 -26 -188 -94 -187 -355 3 -457 35 -19 59 -22 202
-25 l163 -4 0 -168 0 -168 -163 -4 c-143 -3 -167 -6 -202 -25 -189 -101 -191
-364 -3 -457 49 -25 60 -26 210 -26 l158 0 0 -169 0 -169 -157 -4 c-170 -5
-201 -13 -261 -63 -18 -15 -45 -48 -60 -74 -23 -39 -27 -57 -27 -122 0 -67 4
-81 30 -124 40 -64 101 -110 165 -124 28 -6 109 -11 180 -11 l130 0 0 -56 c0
-262 190 -453 451 -454 l57 0 4 -157 c5 -170 13 -201 63 -261 117 -139 338
-113 422 52 25 47 27 62 31 209 l4 157 169 0 169 0 0 -158 c0 -150 1 -161 26
-210 93 -188 356 -186 457 3 19 35 22 59 25 203 l4 162 168 0 168 0 4 -163 c4
-180 12 -210 80 -273 55 -53 95 -68 173 -69 80 0 129 20 181 72 64 63 69 81
72 266 l4 167 168 0 168 0 4 -157 c5 -170 13 -201 63 -261 117 -139 338 -113
422 52 25 47 27 62 31 209 l4 157 55 0 c261 0 452 191 453 451 l0 57 158 4
c146 4 161 6 208 31 165 84 191 305 52 422 -60 50 -91 58 -260 63 l-158 4 0
168 0 168 168 4 c184 3 202 8 265 72 52 52 72 101 72 181 -1 78 -16 118 -69
173 -63 68 -93 76 -273 80 l-163 4 0 168 0 168 163 4 c143 3 167 6 202 25 189
101 191 364 3 457 -49 25 -60 26 -210 26 l-158 0 0 169 0 169 158 4 c146 4
161 6 208 31 165 84 191 305 52 422 -60 50 -91 58 -260 63 l-158 4 0 57 c-1
261 -192 451 -454 451 l-56 0 0 130 c0 71 -5 152 -11 180 -14 64 -60 125 -124
165 -43 26 -57 30 -124 30 -65 0 -83 -4 -122 -27 -26 -15 -59 -42 -74 -60 -50
-60 -58 -91 -63 -260 l-4 -158 -169 0 -169 0 0 158 c0 150 -1 161 -26 210 -78
157 -290 189 -410 60 -63 -66 -69 -87 -72 -265 l-4 -163 -168 0 -168 0 -4 163
c-3 178 -9 199 -72 265 -121 129 -331 98 -410 -60 -25 -49 -26 -60 -26 -210
l0 -158 -170 0 -170 0 0 130 c0 157 -12 218 -54 273 -67 89 -193 129 -289 93z
m122 -171 c16 -8 31 -22 35 -30 3 -9 6 -79 6 -156 l0 -139 -80 0 -80 0 0 141
c0 147 6 174 43 189 32 13 44 12 76 -5z m868 -9 c28 -24 28 -24 31 -170 l3
-146 -85 0 -86 0 0 141 0 141 29 29 c36 36 70 37 108 5z m854 -5 l29 -29 0
-141 0 -141 -86 0 -85 0 3 146 c3 146 3 146 31 170 38 32 72 31 108 -5z m838
14 c16 -8 31 -22 35 -30 3 -9 6 -79 6 -156 l0 -139 -80 0 -80 0 0 141 c0 147
6 174 43 189 32 13 44 12 76 -5z m315 -538 c29 -38 61 -107 71 -155 l7 -32
-30 30 -30 30 -1652 0 -1652 0 -29 -29 -29 -29 0 -1652 0 -1652 29 -29 29 -29
1652 0 1652 0 30 30 30 30 -7 -32 c-10 -48 -42 -117 -71 -155 l-25 -33 -1646
0 c-1642 0 -1647 0 -1689 21 -49 23 -110 86 -130 135 -12 28 -14 294 -14 1714
0 1867 -6 1717 68 1794 20 21 55 47 77 57 38 18 103 19 1687 19 l1647 0 25
-33z m-104 -1837 l0 -1530 -1530 0 -1530 0 0 1530 0 1530 1530 0 1530 0 0
-1530z m-3580 1280 l0 -80 -144 0 c-126 0 -147 2 -167 19 -18 14 -24 29 -24
61 0 32 6 47 24 61 20 17 41 19 167 19 l144 0 0 -80z m4407 65 c42 -30 34
-121 -12 -139 -9 -3 -79 -6 -156 -6 l-139 0 0 80 0 80 143 0 c111 0 147 -3
164 -15z m-4407 -921 l0 -85 -146 3 c-146 3 -146 3 -170 31 -32 38 -31 72 5
108 l29 29 141 0 141 0 0 -86z m4411 57 c36 -36 37 -70 5 -108 -24 -28 -24
-28 -170 -31 l-146 -3 0 85 0 86 141 0 141 0 29 -29z m-4411 -906 l0 -85 -141
0 -141 0 -29 29 c-33 33 -37 65 -13 99 25 36 48 41 192 41 l132 1 0 -85z
m4416 52 c32 -38 31 -72 -5 -108 l-29 -29 -141 0 -141 0 0 86 0 85 146 -3
c146 -3 146 -3 170 -31z m-4416 -907 l0 -80 -144 0 c-126 0 -147 2 -167 19
-18 14 -24 29 -24 61 0 32 6 47 24 61 20 17 41 19 167 19 l144 0 0 -80z m4407
65 c42 -30 34 -121 -12 -139 -9 -3 -79 -6 -156 -6 l-139 0 0 80 0 80 143 0
c111 0 147 -3 164 -15z m-3557 -974 c0 -77 -3 -147 -6 -156 -10 -25 -62 -47
-95 -40 -52 12 -59 34 -59 192 l0 143 80 0 80 0 0 -139z m858 -7 c-3 -146 -3
-146 -31 -170 -38 -32 -72 -31 -108 5 l-29 29 0 141 0 141 86 0 85 0 -3 -146z
m852 5 l0 -141 -29 -29 c-36 -36 -70 -37 -108 -5 -28 24 -28 24 -31 170 l-3
146 85 0 86 0 0 -141z m850 2 c0 -77 -3 -147 -6 -156 -10 -25 -62 -47 -95 -40
-52 12 -59 34 -59 192 l0 143 80 0 80 0 0 -139z"/>
<path d="M1613 3146 c-130 -43 -214 -134 -242 -264 -16 -78 -14 -581 3 -653
25 -110 90 -189 196 -238 46 -22 69 -26 140 -26 73 1 93 5 143 30 109 54 181
157 194 276 5 55 4 59 -25 88 -20 21 -40 31 -60 31 -47 0 -72 -28 -88 -100
-25 -107 -74 -150 -172 -150 -54 0 -100 24 -136 73 -20 27 -21 39 -21 347 0
308 1 320 21 347 36 49 82 73 136 73 98 0 147 -43 172 -150 16 -72 41 -100 88
-100 20 0 40 10 60 31 29 29 30 33 24 90 -12 118 -96 234 -203 280 -61 26
-174 34 -230 15z"/>
<path d="M2265 3148 c-45 -27 -44 -16 -44 -588 0 -575 -1 -563 46 -588 35 -19
63 -14 94 17 l29 29 0 225 0 225 123 4 c107 4 130 8 184 32 82 37 152 111 182
191 19 49 22 74 19 140 -7 133 -74 232 -196 292 -55 27 -63 28 -237 31 -126 2
-186 -1 -200 -10z m386 -191 c39 -26 79 -97 79 -143 0 -48 -41 -116 -86 -141
-34 -20 -54 -23 -146 -23 l-108 0 0 165 0 165 114 0 c101 0 117 -2 147 -23z"/>
<path d="M3099 3130 l-30 -29 3 -443 c3 -433 4 -444 25 -491 31 -67 104 -140
171 -173 48 -23 70 -28 142 -28 72 -1 94 3 140 25 106 49 171 128 196 238 21
87 20 841 -1 881 -28 55 -85 66 -132 26 l-28 -24 -5 -435 c-5 -422 -6 -436
-26 -464 -11 -15 -36 -39 -55 -51 -29 -20 -44 -23 -94 -20 -72 4 -114 29 -141
85 -18 35 -19 70 -22 448 -1 226 -4 420 -7 432 -6 25 -52 53 -85 53 -12 0 -35
-13 -51 -30z"/>
</g>
</svg>
