<?xml version="1.0" standalone="no"?>
<!DOCTYPE svg PUBLIC "-//W3C//DTD SVG 20010904//EN"
 "http://www.w3.org/TR/2001/REC-SVG-20010904/DTD/svg10.dtd">
<svg version="1.0" xmlns="http://www.w3.org/2000/svg"
 width="512.000000pt" height="512.000000pt" viewBox="0 0 512.000000 512.000000"
 preserveAspectRatio="xMidYMid meet">

<g transform="translate(0.000000,512.000000) scale(0.100000,-0.100000)"
fill="#000000" stroke="none">
<path d="M2190 5102 c-32 -16 -74 -64 -201 -228 l-46 -60 -284 -117 c-184 -76
-296 -117 -319 -117 -19 0 -80 7 -135 15 -120 17 -194 19 -232 4 -36 -13 -428
-403 -448 -445 -19 -40 -19 -110 0 -239 8 -55 14 -118 14 -140 0 -28 -36 -125
-117 -319 l-117 -280 -129 -100 c-71 -56 -139 -114 -150 -129 -20 -27 -21 -42
-24 -337 -3 -382 -15 -348 170 -491 l133 -102 119 -286 119 -286 -13 -110
c-19 -174 -23 -241 -16 -272 8 -31 411 -444 458 -469 35 -18 84 -17 252 5
l139 19 291 -121 291 -120 104 -135 c142 -184 112 -174 489 -170 258 3 301 5
328 20 18 10 77 77 133 150 l102 134 292 120 292 121 160 -20 c99 -13 175 -17
200 -13 35 7 66 34 262 229 195 196 222 227 229 262 5 25 0 101 -13 200 l-20
160 120 291 120 292 129 98 c71 55 139 115 151 134 21 34 22 47 25 332 4 377
14 347 -170 489 l-135 104 -121 295 -121 295 19 135 c22 156 24 213 9 243 -16
32 -419 436 -452 453 -37 20 -68 20 -245 -2 l-152 -18 -78 33 c-42 18 -172 71
-288 119 l-211 87 -102 133 c-73 94 -113 138 -141 152 -37 19 -59 20 -337 20
-264 0 -302 -2 -333 -18z m528 -254 l79 -103 309 -128 c170 -70 314 -127 321
-127 7 0 62 -21 123 -46 l112 -45 111 14 112 15 158 -156 c183 -182 170 -147
138 -386 l-19 -140 128 -310 128 -311 133 -104 c74 -56 139 -113 146 -125 9
-15 12 -100 13 -301 0 -238 -2 -284 -15 -303 -9 -12 -71 -64 -139 -116 -67
-52 -127 -100 -133 -108 -5 -7 -67 -150 -136 -318 l-126 -305 19 -135 c11 -74
19 -157 20 -184 l0 -50 -155 -155 -155 -156 -117 14 -118 14 -100 -43 c-55
-23 -109 -44 -121 -45 -20 -3 -561 -223 -616 -251 -15 -8 -61 -59 -103 -114
l-77 -100 -187 0 -186 1 -95 125 c-52 69 -104 133 -115 143 -11 10 -166 78
-343 151 l-324 134 -171 -23 -171 -22 -184 184 -185 185 22 170 23 170 -132
319 c-72 175 -137 328 -145 340 -8 12 -73 66 -144 120 l-130 98 0 260 -1 260
137 105 138 105 138 334 139 333 -23 170 -22 170 186 186 185 185 169 -22 169
-23 333 138 334 138 106 138 106 138 187 0 187 0 79 -102z"/>
<path d="M2313 4429 c-537 -63 -1029 -365 -1326 -814 -324 -490 -396 -1115
-191 -1663 173 -463 529 -840 983 -1043 602 -268 1312 -188 1846 208 502 372
789 1002 737 1616 -50 582 -343 1082 -822 1401 -352 235 -807 344 -1227 295z
m851 -1041 c18 -37 26 -68 26 -107 l0 -54 -26 24 -26 24 -606 3 c-444 2 -614
-1 -635 -9 -59 -25 -58 -11 -55 -678 l3 -609 24 -26 24 -26 624 0 624 0 26 26
25 26 -4 -64 c-2 -37 -12 -80 -24 -103 l-21 -40 -675 -3 -675 -2 -34 23 c-19
12 -44 42 -56 67 l-23 44 0 691 c0 422 4 704 10 725 12 42 65 97 106 110 16 4
324 9 686 9 l656 1 26 -52z m-144 -788 l0 -500 -500 0 -500 0 0 500 0 500 500
0 500 0 0 -500z"/>
</g>
</svg>
