<?xml version="1.0" standalone="no"?>
<!DOCTYPE svg PUBLIC "-//W3C//DTD SVG 20010904//EN"
 "http://www.w3.org/TR/2001/REC-SVG-20010904/DTD/svg10.dtd">
<svg version="1.0" xmlns="http://www.w3.org/2000/svg"
 width="512.000000pt" height="512.000000pt" viewBox="0 0 512.000000 512.000000"
 preserveAspectRatio="xMidYMid meet">

<g transform="translate(0.000000,512.000000) scale(0.100000,-0.100000)"
fill="#000000" stroke="none">
<path d="M190 4471 c-69 -21 -131 -74 -166 -141 -26 -49 -26 -162 0 -214 24
-47 74 -99 119 -123 19 -10 64 -18 115 -21 l82 -5 0 -167 0 -168 -107 -4
c-123 -4 -156 -17 -200 -75 l-28 -36 0 -317 0 -317 28 -36 c44 -58 77 -71 200
-75 l107 -4 0 -84 0 -84 -107 0 c-132 0 -175 -19 -211 -90 -22 -44 -22 -46
-22 -546 0 -332 4 -512 11 -531 30 -79 98 -112 231 -113 l97 0 3 -247 c3 -232
4 -251 25 -288 79 -146 260 -188 389 -90 19 14 46 47 61 73 26 43 28 58 33
172 l5 125 83 3 82 3 0 -86 c0 -140 20 -191 91 -234 33 -21 44 -21 640 -21
l606 0 33 23 c65 44 74 66 80 195 l5 117 85 0 85 0 5 -117 c6 -129 15 -151 80
-196 l33 -22 1041 2 1041 3 34 24 c54 39 71 89 71 213 l0 106 45 26 c50 30 97
92 114 151 9 30 11 344 9 1200 l-3 1160 -22 41 c-30 57 -97 111 -157 129 -43
13 -317 15 -2068 15 l-2018 0 0 243 c0 241 0 243 -26 295 -14 29 -42 65 -62
82 -65 53 -103 60 -336 59 -116 0 -222 -4 -236 -8z m466 -194 l24 -28 0 -1688
c0 -1669 0 -1689 -20 -1714 -11 -13 -31 -28 -45 -31 -29 -7 -79 15 -89 39 -3
9 -6 728 -6 1598 0 1058 -4 1594 -10 1619 -17 59 -38 68 -166 68 -96 0 -115 3
-137 20 -31 25 -41 63 -25 98 23 48 46 53 256 50 l194 -3 24 -28z m4114 -696
c13 -48 9 -2297 -4 -2324 -8 -16 -111 -17 -1957 -17 l-1949 0 0 1190 0 1190
1950 0 1949 0 11 -39z m-4430 -381 l0 -261 -82 3 -83 3 -3 245 c-1 134 0 250
3 257 3 9 29 13 85 13 l80 0 0 -260z m0 -1240 l0 -470 -85 0 -85 0 0 470 0
470 85 0 85 0 0 -470z m1110 -975 l0 -85 -125 0 -125 0 0 85 0 85 125 0 125 0
0 -85z m428 -2 l3 -83 -131 0 -130 0 0 78 c0 43 3 82 7 86 4 3 61 5 127 4
l121 -3 3 -82z m422 2 l0 -85 -125 0 -125 0 0 85 0 85 125 0 125 0 0 -85z
m770 0 l0 -85 -125 0 -125 0 0 85 0 85 125 0 125 0 0 -85z m428 -2 l3 -83
-131 0 -130 0 0 78 c0 43 3 82 7 86 4 3 61 5 127 4 l121 -3 3 -82z m422 2 l0
-85 -125 0 -125 0 0 85 0 85 125 0 125 0 0 -85z m430 0 l0 -85 -125 0 -125 0
0 85 0 85 125 0 125 0 0 -85z m428 -2 l3 -83 -131 0 -130 0 0 78 c0 43 3 82 7
86 4 3 61 5 127 4 l121 -3 3 -82z"/>
<path d="M1923 3009 c-76 -29 -154 -104 -189 -181 l-29 -63 -3 -295 c-2 -196
0 -315 8 -355 23 -117 90 -203 199 -253 46 -22 71 -27 141 -27 72 0 93 4 140
27 72 35 136 99 169 168 24 50 26 68 29 201 3 143 3 147 -21 175 -25 29 -25
29 -146 29 -118 0 -121 -1 -148 -27 -37 -37 -36 -93 2 -125 20 -18 38 -23 81
-23 l54 0 0 -69 c0 -74 -19 -115 -72 -154 -71 -53 -191 -21 -235 63 -22 42
-23 50 -23 329 0 278 1 288 23 331 30 60 76 90 139 90 95 0 150 -46 168 -139
5 -29 14 -60 20 -71 25 -47 97 -54 137 -14 24 24 25 31 21 94 -6 84 -36 149
-98 210 -68 68 -127 93 -230 97 -68 3 -96 -1 -137 -18z"/>
<path d="M2585 3005 l-25 -24 0 -549 c0 -537 0 -549 20 -570 11 -12 32 -25 45
-28 31 -8 82 12 95 37 6 10 10 118 10 243 l0 226 98 0 c55 0 124 7 157 15 265
68 350 401 148 585 -86 79 -130 90 -344 90 -178 0 -180 0 -204 -25z m406 -178
c19 -12 45 -43 58 -70 32 -65 24 -123 -26 -178 -43 -48 -81 -59 -200 -59 l-93
0 0 165 0 165 114 0 c101 0 117 -2 147 -23z"/>
<path d="M3440 3010 c-11 -11 -22 -30 -25 -42 -3 -13 -5 -216 -3 -453 3 -420
4 -431 25 -478 33 -71 103 -140 176 -173 52 -24 75 -29 142 -29 67 0 90 5 140
28 78 36 137 95 172 171 l28 61 3 425 c2 234 0 435 -3 447 -15 63 -101 85
-146 37 l-24 -26 -5 -431 -5 -432 -23 -33 c-54 -75 -164 -93 -235 -39 -67 51
-67 49 -67 510 l0 415 -26 31 c-21 25 -33 31 -65 31 -25 0 -46 -7 -59 -20z"/>
</g>
</svg>
