<?xml version="1.0" standalone="no"?>
<!DOCTYPE svg PUBLIC "-//W3C//DTD SVG 20010904//EN"
 "http://www.w3.org/TR/2001/REC-SVG-20010904/DTD/svg10.dtd">
<svg version="1.0" xmlns="http://www.w3.org/2000/svg"
 width="512.000000pt" height="512.000000pt" viewBox="0 0 512.000000 512.000000"
 preserveAspectRatio="xMidYMid meet">

<g transform="translate(0.000000,512.000000) scale(0.100000,-0.100000)"
fill="#000000" stroke="none">
<path d="M3343 4896 c-85 -27 -159 -91 -205 -178 l-23 -43 -3 -732 c-1 -403
-5 -733 -8 -733 -3 0 -43 34 -87 76 -273 254 -676 422 -1061 442 -405 22 -766
-75 -1091 -293 -313 -209 -545 -506 -678 -865 -161 -435 -134 -938 73 -1365
355 -732 1162 -1126 1955 -954 290 62 567 202 792 398 51 45 94 81 97 81 2 0
6 -64 8 -142 3 -126 6 -148 26 -186 35 -66 98 -128 161 -159 l56 -28 755 0
755 0 67 33 c76 37 120 82 157 162 l26 55 0 2095 0 2095 -33 67 c-37 76 -82
120 -162 157 l-55 26 -740 2 c-589 2 -749 -1 -782 -11z m147 -282 c47 -64 103
-131 125 -150 71 -62 98 -65 522 -62 l378 3 54 30 c42 23 70 51 124 123 50 66
73 89 78 80 5 -7 9 -139 9 -293 l0 -280 -29 50 c-31 54 -87 99 -142 115 -20 6
-228 10 -504 10 l-470 0 -50 -24 c-99 -46 -152 -138 -143 -251 9 -111 81 -196
190 -226 24 -6 212 -9 505 -7 458 3 469 3 508 25 50 27 99 78 119 123 14 32
15 16 15 -225 l0 -260 -19 36 c-26 49 -100 113 -148 127 -51 16 -940 17 -994
2 -57 -16 -119 -69 -150 -129 -72 -137 -4 -308 143 -356 40 -14 114 -15 520
-13 464 3 475 3 514 25 46 24 95 74 118 118 15 28 16 5 17 -313 l0 -344 -58
-71 c-78 -97 -91 -116 -102 -157 -10 -36 -80 -967 -83 -1096 -2 -109 28 -162
148 -258 l95 -77 0 -193 c0 -198 -6 -236 -42 -288 l-19 -28 -653 0 -652 0 -44
22 c-83 43 -85 48 -88 309 l-3 230 44 67 c129 195 214 407 262 652 26 131 31
409 11 550 -39 265 -131 511 -271 724 l-45 69 0 806 c0 766 1 808 19 841 18
34 73 80 95 80 6 -1 49 -53 96 -116z m-1328 -1082 c112 -25 188 -57 308 -131
320 -199 586 -524 700 -857 26 -75 20 -79 -10 -6 -126 307 -390 581 -703 727
-201 94 -332 124 -562 132 -189 6 -291 -6 -450 -52 -435 -126 -798 -469 -945
-892 -29 -83 -31 -96 -20 -124 8 -18 27 -37 46 -46 32 -16 36 -15 126 19 169
65 434 120 728 150 167 17 764 17 930 0 308 -32 575 -87 734 -151 55 -22 88
-30 108 -26 30 7 67 47 69 74 2 34 20 -50 35 -164 12 -90 15 -159 10 -275 -5
-135 -22 -274 -25 -214 -1 22 -34 57 -64 67 -10 4 -67 -4 -125 -18 -246 -56
-491 -89 -752 -101 -93 -4 -153 -11 -166 -20 -83 -51 -204 -610 -204 -940 0
-79 19 -117 64 -128 32 -8 200 25 301 59 391 130 721 436 872 809 41 102 43
85 3 -24 -143 -388 -422 -708 -790 -908 -250 -135 -677 -146 -1038 -26 -469
155 -845 532 -1002 1002 -64 191 -83 330 -77 552 4 133 11 211 26 278 131 590
563 1050 1137 1207 160 44 253 55 454 51 140 -3 209 -9 282 -24z m-67 -326
c308 -69 570 -235 755 -478 64 -84 136 -206 127 -215 -3 -3 -55 7 -115 21
-318 76 -605 106 -1017 106 -411 0 -690 -29 -1008 -104 -60 -14 -113 -26 -118
-26 -14 0 43 106 102 190 184 261 500 460 809 510 41 6 82 13 90 15 37 9 312
-5 375 -19z m935 -1658 c0 -27 -110 -236 -161 -308 -69 -98 -204 -232 -302
-298 -127 -87 -305 -167 -439 -196 -26 -6 -27 -4 -23 21 2 16 7 71 10 123 8
124 46 329 87 466 l33 109 170 12 c193 13 376 36 515 63 52 10 98 18 103 19 4
1 7 -5 7 -11z"/>
<path d="M3985 2706 c-79 -33 -165 -122 -191 -198 -71 -205 66 -427 280 -453
102 -13 245 45 303 123 56 76 68 113 68 212 0 111 -18 161 -84 232 -62 68
-136 101 -235 105 -69 3 -90 0 -141 -21z m205 -169 c89 -47 116 -163 56 -242
-39 -51 -78 -68 -146 -63 -97 7 -150 65 -150 166 0 63 30 109 90 140 56 28 96
28 150 -1z"/>
<path d="M3570 707 c-52 -27 -62 -104 -18 -143 18 -17 38 -19 185 -19 l165 0
25 29 c20 24 24 36 19 65 -11 69 -27 76 -199 79 -110 2 -159 -1 -177 -11z"/>
<path d="M4311 694 c-25 -20 -31 -34 -31 -64 0 -30 6 -44 31 -64 30 -25 34
-26 175 -26 188 0 214 12 214 95 0 25 -8 40 -31 59 -30 25 -34 26 -179 26
-145 0 -149 -1 -179 -26z"/>
<path d="M1743 2296 c-95 -30 -178 -109 -214 -205 -17 -45 -20 -71 -17 -136 9
-159 101 -271 257 -311 82 -20 151 -12 230 27 211 106 251 383 77 547 -88 83
-218 114 -333 78z"/>
<path d="M862 2117 c-20 -21 -22 -34 -22 -139 0 -64 3 -124 6 -133 8 -19 55
-45 84 -45 12 0 35 13 51 29 29 29 29 31 29 146 0 110 -1 117 -25 140 -33 34
-93 34 -123 2z"/>
<path d="M1212 2133 c-29 -12 -42 -62 -42 -168 0 -104 1 -107 29 -136 37 -36
79 -38 118 -5 28 24 28 25 28 144 0 114 -1 122 -24 146 -24 25 -73 34 -109 19z"/>
<path d="M2371 2114 c-18 -23 -21 -41 -21 -140 0 -62 3 -120 6 -129 8 -19 55
-45 83 -45 11 0 33 12 50 26 l31 26 0 119 c0 114 -1 121 -25 144 -35 36 -96
35 -124 -1z"/>
<path d="M2710 2120 c-28 -28 -32 -55 -28 -170 3 -97 4 -103 31 -126 16 -13
41 -24 57 -24 16 0 41 11 57 24 27 23 28 29 31 126 4 117 0 142 -30 170 -29
27 -91 27 -118 0z"/>
<path d="M481 1744 c-23 -19 -31 -34 -31 -58 0 -45 36 -168 77 -266 191 -447
570 -755 1051 -852 97 -19 107 -19 138 -5 44 22 48 41 41 216 -15 333 -117
780 -193 840 -19 15 -50 19 -171 25 -261 12 -519 47 -747 100 -59 14 -114 26
-121 26 -7 0 -27 -12 -44 -26z m341 -213 c151 -26 355 -49 510 -57 l126 -7 31
-106 c51 -174 101 -471 101 -603 0 -22 -31 -17 -150 24 -326 114 -594 355
-733 658 -19 41 -38 86 -42 99 -7 22 -5 23 19 17 14 -3 76 -15 138 -25z"/>
</g>
</svg>
