<?xml version="1.0" standalone="no"?>
<!DOCTYPE svg PUBLIC "-//W3C//DTD SVG 20010904//EN"
 "http://www.w3.org/TR/2001/REC-SVG-20010904/DTD/svg10.dtd">
<svg version="1.0" xmlns="http://www.w3.org/2000/svg"
 width="512.000000pt" height="512.000000pt" viewBox="0 0 512.000000 512.000000"
 preserveAspectRatio="xMidYMid meet">

<g transform="translate(0.000000,512.000000) scale(0.100000,-0.100000)"
fill="#000000" stroke="none">
<path d="M321 4428 c-45 -12 -273 -235 -301 -293 -18 -37 -20 -61 -20 -253 0
-160 3 -221 14 -246 8 -19 46 -81 85 -140 l71 -105 0 -142 0 -142 -79 -83
c-56 -58 -82 -92 -86 -116 -3 -18 -5 -130 -3 -249 l3 -216 82 -124 83 -125 0
-232 0 -233 -71 -105 c-39 -59 -77 -121 -85 -140 -21 -50 -20 -314 2 -360 21
-45 65 -81 114 -94 l40 -11 0 -97 c0 -104 17 -159 58 -195 53 -47 18 -46 1387
-47 858 0 1302 4 1327 10 48 14 97 55 114 97 9 20 14 71 14 133 l0 100 85 0
85 0 0 -92 c1 -138 43 -210 138 -238 25 -8 258 -10 743 -8 l705 3 41 27 c62
41 83 93 83 211 l0 96 39 11 c51 13 87 43 111 91 17 33 20 59 20 184 0 171 0
171 -99 319 l-71 105 0 233 0 232 83 125 82 124 3 216 c2 119 0 231 -3 249 -4
24 -30 58 -86 116 l-79 83 0 142 0 142 71 105 c39 59 77 121 85 140 11 25 14
86 14 246 0 192 -2 216 -20 253 -12 24 -72 93 -143 162 -93 92 -133 124 -163
132 -55 15 -1178 15 -1225 0 -19 -6 -68 -44 -109 -85 l-75 -74 -825 0 -825 0
-75 74 c-41 41 -90 79 -109 85 -44 14 -1180 14 -1230 -1z m1239 -1424 c113
-115 12 -104 1000 -104 988 0 887 -11 1000 104 l64 66 491 0 490 0 85 -85 85
-85 0 -214 0 -213 -82 -124 -83 -125 0 -262 0 -263 82 -122 83 -122 3 -127 4
-128 -2306 0 -2306 0 0 108 0 107 85 128 c46 70 87 142 90 160 4 18 5 147 3
288 l-3 256 -87 132 -88 131 0 172 0 173 107 107 108 108 555 0 556 0 64 -66z
m1338 -2066 l-3 -83 -1275 0 -1275 0 -3 83 -3 82 1281 0 1281 0 -3 -82z m1882
3 c0 -63 -3 -80 -16 -85 -20 -8 -1318 -8 -1338 0 -13 5 -16 22 -16 85 l0 79
685 0 685 0 0 -79z"/>
<path d="M709 2621 l-29 -29 0 -547 0 -546 25 -24 c23 -24 28 -25 172 -25 168
0 258 18 350 71 353 202 418 665 134 950 -133 132 -261 179 -494 179 l-129 0
-29 -29z m381 -180 c119 -45 213 -148 252 -275 59 -196 -38 -410 -230 -502
-47 -23 -74 -29 -154 -32 l-98 -4 0 422 0 423 88 -5 c53 -4 109 -14 142 -27z"/>
<path d="M1753 2640 c-53 -22 -54 -26 -51 -604 l3 -534 24 -26 c24 -26 27 -26
167 -26 172 0 223 10 333 62 157 75 284 237 322 409 17 82 7 248 -21 326 -65
187 -228 333 -426 383 -83 21 -307 28 -351 10z m391 -214 c128 -63 219 -187
234 -319 22 -188 -68 -357 -234 -438 -59 -29 -79 -34 -166 -37 l-98 -4 0 422
0 423 95 -5 c84 -5 104 -10 169 -42z"/>
<path d="M2775 2638 c-45 -27 -44 -16 -45 -591 l0 -548 25 -24 c26 -27 72 -33
107 -14 41 22 48 65 48 289 l0 210 95 0 95 0 120 -239 c69 -139 129 -246 142
-255 56 -39 138 -1 138 64 0 18 -41 112 -106 242 -58 117 -102 214 -96 216 26
8 104 71 131 106 71 89 91 223 49 333 -27 73 -102 154 -177 190 -55 28 -58 28
-281 31 -161 2 -231 -1 -245 -10z m472 -194 c102 -75 99 -211 -6 -281 -32 -21
-45 -23 -182 -23 l-149 0 0 166 0 165 154 -3 c138 -3 158 -5 183 -24z"/>
<path d="M4142 2643 c-8 -3 -137 -170 -288 -371 -204 -272 -274 -372 -274
-393 0 -15 12 -41 26 -58 l26 -31 229 0 229 0 0 -139 c0 -135 1 -140 26 -170
19 -23 34 -31 59 -31 82 0 95 27 95 205 l0 135 98 0 c73 0 103 4 120 16 34 23
45 60 31 101 -15 47 -56 63 -164 63 l-85 0 0 311 0 311 -29 29 c-28 28 -65 36
-99 22z m-52 -518 l0 -155 -120 0 -120 0 116 155 c64 85 118 155 120 155 2 0
4 -70 4 -155z"/>
</g>
</svg>
